<?xml version="1.0" encoding="UTF-8" standalone="no"?>
<!-- Created with Inkscape (http://www.inkscape.org/) -->

<svg
   xmlns:dc="http://purl.org/dc/elements/1.1/"
   xmlns:cc="http://creativecommons.org/ns#"
   xmlns:rdf="http://www.w3.org/1999/02/22-rdf-syntax-ns#"
   xmlns:svg="http://www.w3.org/2000/svg"
   xmlns="http://www.w3.org/2000/svg"
   xmlns:sodipodi="http://sodipodi.sourceforge.net/DTD/sodipodi-0.dtd"
   xmlns:inkscape="http://www.inkscape.org/namespaces/inkscape"
   width="128"
   height="128"
   viewBox="0 0 128 128"
   id="svg2"
   version="1.1"
   inkscape:version="0.92.4 (5da689c313, 2019-01-14)"
   sodipodi:docname="logo.svg"
   inkscape:export-filename="D:\work\proyects\programming\python\agFotoMap\images\logo_16.png"
   inkscape:export-xdpi="11.25"
   inkscape:export-ydpi="11.25">
  <defs
     id="defs4" />
  <sodipodi:namedview
     id="base"
     pagecolor="#ffffff"
     bordercolor="#666666"
     borderopacity="1.0"
     inkscape:pageopacity="0.0"
     inkscape:pageshadow="2"
     inkscape:zoom="1.6445313"
     inkscape:cx="2.2385139"
     inkscape:cy="51.517182"
     inkscape:document-units="px"
     inkscape:current-layer="layer1"
     showgrid="false"
     units="px"
     inkscape:window-width="1920"
     inkscape:window-height="1012"
     inkscape:window-x="0"
     inkscape:window-y="32"
     inkscape:window-maximized="1" />
  <metadata
     id="metadata7">
    <rdf:RDF>
      <cc:Work
         rdf:about="">
        <dc:format>image/svg+xml</dc:format>
        <dc:type
           rdf:resource="http://purl.org/dc/dcmitype/StillImage" />
        <dc:title />
      </cc:Work>
    </rdf:RDF>
  </metadata>
  <g
     inkscape:label="Capa 1"
     inkscape:groupmode="layer"
     id="layer1"
     transform="translate(0,-924.36216)">
    <path
       style="opacity:1;fill:#008000;fill-opacity:1;stroke:none;stroke-width:4;stroke-linecap:square;stroke-miterlimit:4;stroke-dasharray:none;stroke-dashoffset:0;stroke-opacity:1"
       d="m 45.159691,932.36216 74.840309,0 0,74.66664 c 0,20.6827 -16.57323,37.3334 -37.159694,37.3334 l -74.8403049,0 0,-74.66672 c 0,-20.68266 16.5732219,-37.33332 37.1596899,-37.33332 z"
       id="rect4245"
       inkscape:connector-curvature="0"
       sodipodi:nodetypes="scsscss" />
    <flowRoot
       transform="matrix(1.3433431,0,0,1.3496201,-34.646142,882.78776)"
       style="font-style:normal;font-weight:normal;line-height:0.01%;font-family:sans-serif;letter-spacing:0px;word-spacing:0px;opacity:1;fill:#ffffff;fill-opacity:1;stroke:none;stroke-width:1px;stroke-linecap:butt;stroke-linejoin:miter;stroke-opacity:1"
       id="flowRoot4196"
       xml:space="preserve"><flowRegion
         id="flowRegion4198"><rect
           style="font-size:40px;fill:#ffffff"
           y="51.990498"
           x="39.220905"
           height="46.517818"
           width="34.356289"
           id="rect4200" /></flowRegion><flowPara
         style="font-style:normal;font-variant:normal;font-weight:bold;font-stretch:normal;font-size:40px;line-height:1.25;font-family:sans-serif;-inkscape-font-specification:'sans-serif Bold';fill:#ffffff"
         id="flowPara4202">A</flowPara></flowRoot>    <path
       sodipodi:nodetypes="ccscscscccccccssccsssccccccc"
       inkscape:connector-curvature="0"
       id="path4232"
       style="font-style:normal;font-variant:normal;font-weight:bold;font-stretch:normal;font-size:40px;line-height:125%;font-family:sans-serif;-inkscape-font-specification:'sans-serif Bold';letter-spacing:0px;word-spacing:0px;opacity:1;fill:#ffffff;fill-opacity:1;stroke:none;stroke-width:1px;stroke-linecap:butt;stroke-linejoin:miter;stroke-opacity:1"
       d="m 107.32959,1005.7201 c -1.74915,0.6853 -4.06677,1.3707 -6.95285,2.056 -2.886094,0.6678 -5.763437,1.0017 -8.632034,1.0017 -6.64675,0 -11.850455,-1.81 -15.611115,-5.4301 -3.760661,-3.63766 -5.640992,-8.6548 -5.640992,-15.05144 0,-6.09789 1.897821,-11.00959 5.693465,-14.73511 3.795644,-3.74308 9.086807,-5.61463 15.873488,-5.61463 2.571243,0 5.020045,0.23724 7.346407,0.71171 2.326361,0.45691 4.915101,1.3795 7.766201,2.76778 l 0,9.19956 -1.1282,0 c -0.48976,-0.36904 -1.20691,-0.88745 -2.15144,-1.55523 -0.94454,-0.68535 -1.8541,-1.26527 -2.72867,-1.73974 -1.0145,-0.56234 -2.203922,-1.04561 -3.568255,-1.44979 -1.346841,-0.40418 -2.781139,-0.60627 -4.302896,-0.60627 -1.784127,0 -3.402086,0.26359 -4.853876,0.79079 -1.45179,0.5272 -2.754902,1.33556 -3.909338,2.4251 -1.101962,1.05439 -1.976533,2.39874 -2.623717,4.03304 -0.629692,1.61674 -0.944538,3.48828 -0.944538,5.61463 0,4.34058 1.145689,7.66191 3.437068,9.964 2.291379,2.3021 5.675975,3.4531 10.153785,3.4531 0.384813,0 0.804608,-0.01 1.259384,-0.026 0.47227,-0.018 0.90081,-0.044 1.285621,-0.079 l 0,-7.69706 -48.307166,0 0,-7.40709 58.539668,0 z" />
  </g>
</svg>
